HIERARCHY
ROOT ui
{
	 OFFSET 0 0 0
	 CHANNELS 3 XPosition YPosition Z Position
	 EndSite
	 {
	 OFFSET 0 -1 0
	 }
}
ROOT li
{
	 OFFSET 0 0 0
	 CHANNELS 3 XPosition YPosition Z Position
	 EndSite
	 {
	 OFFSET 0 -1 0
	 }
}
ROOT ul
{
	 OFFSET 0 0 0
	 CHANNELS 3 XPosition YPosition Z Position
	 EndSite
	 {
	 OFFSET 0 -1 0
	 }
}
ROOT ll
{
	 OFFSET 0 0 0
	 CHANNELS 3 XPosition YPosition Z Position
	 EndSite
	 {
	 OFFSET 0 -1 0
	 }
}
ROOT tt
{
	 OFFSET 0 0 0
	 CHANNELS 3 XPosition YPosition Z Position
	 EndSite
	 {
	 OFFSET 0 -1 0
	 }
}
ROOT tb
{
	 OFFSET 0 0 0
	 CHANNELS 3 XPosition YPosition Z Position
	 EndSite
	 {
	 OFFSET 0 -1 0
	 }
}
ROOT td
{
	 OFFSET 0 0 0
	 CHANNELS 3 XPosition YPosition Z Position
	 EndSite
	 {
	 OFFSET 0 -1 0
	 }
}
ROOT v
{
	 OFFSET 0 0 0
	 CHANNELS 3 XPosition YPosition Z Position
	 EndSite
	 {
	 OFFSET 0 -1 0
	 }
}
ROOT bn
{
	 OFFSET 0 0 0
	 CHANNELS 3 XPosition YPosition Z Position
	 EndSite
	 {
	 OFFSET 0 -1 0
	 }
}
MOTION
Frames: 16
Frame Time: 0.002
0.0011903929710388183	-8.151010274887085E-4	0		0.46705960083007814	-2.36800048828125	0		-0.9954678344726563	-0.015285181045532227	0		-0.799660400390625	-2.259785400390625	0		1.5746080322265625	-0.4906956787109375	0		3.258246826171875	0.002008202075958252	0		4.72093603515625	0.012004839897155761	0		5.62907421875	0.08767253112792969	0		0.13960671997070312	6.02660400390625	0		
-0.0014902290105819702	-0.003908255100250244	0		0.4243697814941406	-2.37090380859375	0		-1.061857421875	-0.00625551700592041	0		-0.8234014892578125	-2.263685302734375	0		1.5890089111328125	-0.49853192138671876	0		3.258636474609375	0.00322170090675354	0		4.72610205078125	0.0047197918891906734	0		5.6162373046875	0.08220746612548828	0		0.006901202201843262	6.0056474609375	0		
0.009152607917785644	0.005677403926849366	0		0.484789794921875	-2.370304443359375	0		-0.9823994140625	-0.005748197078704834	0		-0.7691430053710937	-2.268458984375	0		1.5558453369140626	-0.48824029541015623	0		3.27210888671875	0.007089569091796875	0		4.72862451171875	0.01145703125	0		5.62496337890625	0.09916822814941406	0		0.15256080627441407	6.03497216796875	0		
-0.019496511459350586	0.003183516025543213	0		0.4504218444824219	-2.35844775390625	0		-0.981981689453125	-0.006318157196044922	0		-0.7895087280273437	-2.255432373046875	0		1.57952001953125	-0.48533172607421876	0		3.277846923828125	0.022103574752807616	0		4.73522021484375	0.02103289222717285	0		5.6253388671875	0.10124567413330078	0		0.018079837799072265	6.0159482421875	0		
0.006890775203704834	0.0014011399745941162	0		0.47457550048828123	-2.3659794921875	0		-0.9856517333984375	-0.010778130531311035	0		-0.7902728271484375	-2.257865234375	0		1.5401575927734374	-0.4829850769042969	0		3.228878662109375	0.007311680793762207	0		4.73083837890625	0.03177992820739746	0		5.611560546875	0.09654446411132812	0		-2.9270999133586883E-5	6.00614794921875	0		
-0.022753456115722655	-0.001093245029449463	0		0.45667013549804686	-2.373552490234375	0		-0.9933876953125	-0.018127870559692384	0		-0.791085693359375	-2.26028125	0		1.5807154541015624	-0.48451068115234375	0		3.260284423828125	0.007599340915679932	0		4.722951171875	0.02049604034423828	0		5.60714697265625	0.10750507354736329	0		-0.0017816970348358155	6.00597119140625	0		
0.0036519670486450193	-0.0018554339408874511	0		0.48587496948242187	-2.374197509765625	0		-1.0597750244140625	-0.009145662307739258	0		-0.8149727172851563	-2.26316455078125	0		1.55205224609375	-0.49450311279296877	0		3.269646240234375	0.006323638916015625	0		4.72335546875	0.021913681030273437	0		5.608142578125	0.0922027587890625	0		-0.0024177470207214355	6.0047734375	0		
0.008122639656066894	8.854650259017945E-4	0		0.4641796875	-2.366713623046875	0		-0.9803201293945313	-0.008385226249694825	0		-0.7728279418945313	-2.262491943359375	0		1.5956669921875	-0.49213690185546877	0		3.266402099609375	0.023255502700805664	0		4.732037109375	0.0360356559753418	0		5.61686865234375	0.109599853515625	0		0.010375723838806153	6.0162900390625	0		
0.00851996898651123	7.20907986164093E-4	0		0.49013906860351564	-2.3722890625	0		-0.9840059204101562	-0.012744453430175781	0		-0.7738485107421875	-2.26583544921875	0		1.585468017578125	-0.4796119689941406	0		3.270444580078125	0.007938849925994872	0		4.73242431640625	0.03722079086303711	0		5.62725390625	0.111820556640625	0		0.12528744506835937	6.02560595703125	0		
-0.017064750671386717	0.0021196138858795167	0		0.4891002197265625	-2.374279052734375	0		-0.9836145629882812	-0.01316049861907959	0		-0.7847411499023438	-2.25994091796875	0		1.5828953857421875	-0.48329605102539064	0		3.285084716796875	0.020323760986328127	0		4.72452587890625	0.025462474822998047	0		5.63241845703125	0.1040147705078125	0		-0.007350964069366455	6.00529150390625	0		
0.0021582059860229493	-0.005439008235931396	0		0.47915985107421877	-2.36808642578125	0		-0.9913819580078125	-0.0203719539642334	0		-0.8228290405273437	-2.2594501953125	0		1.54341455078125	-0.4812320556640625	0		3.2622490234375	0.011426708221435548	0		4.72489599609375	0.02641113090515137	0		5.62379345703125	0.10636582183837891	0		-0.008375441551208496	6.00513623046875	0		
0.009646404266357421	2.6868399977684023E-4	0		0.4380018310546875	-2.3682490234375	0		-0.9828698120117187	-0.013891531944274902	0		-0.7633468627929687	-2.27700048828125	0		1.5945926513671875	-0.4951245422363281	0		3.262609375	0.011958826065063476	0		4.73006298828125	0.01814356803894043	0		5.60930517578125	0.115700927734375	0		-0.009258219718933106	6.00498974609375	0		
0.009993691444396973	1.3659000396728515E-4	0		0.44392599487304685	-2.36140869140625	0		-1.0534005126953125	-0.0077277798652648924	0		-0.8391509399414062	-2.255675048828125	0		1.5612249755859375	-0.48526153564453123	0		3.2808671875	0.00804650592803955	0		4.72769873046875	0.03293230819702148	0		5.6285859375	0.11419560241699218	0		0.007176956176757812	6.01349853515625	0		
0.013404397010803223	0.003954020977020264	0		0.4964538269042969	-2.370531982421875	0		-0.978107177734375	-0.010565793991088868	0		-0.767623291015625	-2.26439501953125	0		1.5985196533203125	-0.4908979187011719	0		3.271506591796875	0.02365024948120117	0		4.7389990234375	0.03233569717407227	0		5.62889599609375	0.11496926879882813	0		0.13701754760742188	6.0346875	0		
-0.015346977233886719	0.0014445459842681884	0		0.46704864501953125	-2.371954833984375	0		-1.0568460693359376	-0.012185086250305175	0		-0.8050003051757812	-2.26382763671875	0		1.5850587158203124	-0.4825002746582031	0		3.24758740234375	0.013486414909362794	0		4.72622021484375	0.02914578628540039	0		5.61922802734375	0.1178385009765625	0		-0.011151208877563476	6.00462255859375	0		
-0.015072969436645508	0.0013511799573898316	0		0.482677734375	-2.368298828125	0		-0.9897476196289062	-0.021765302658081055	0		-0.7824464721679687	-2.2634619140625	0		1.591265380859375	-0.4885283203125	0		3.267957763671875	0.018364160537719727	0		4.72649072265625	0.02960499382019043	0		5.6153056640625	0.10948526763916015	0		-0.01157679843902588	6.00452978515625	0		
